<?xml version="1.0" encoding="utf-8" standalone="no"?>
<!DOCTYPE svg PUBLIC "-//W3C//DTD SVG 1.1//EN"
  "http://www.w3.org/Graphics/SVG/1.1/DTD/svg11.dtd">
<svg xmlns:xlink="http://www.w3.org/1999/xlink" width="1080pt" height="288pt" viewBox="0 0 1080 288" xmlns="http://www.w3.org/2000/svg" version="1.1">
 <metadata>
  <rdf:RDF xmlns:dc="http://purl.org/dc/elements/1.1/" xmlns:cc="http://creativecommons.org/ns#" xmlns:rdf="http://www.w3.org/1999/02/22-rdf-syntax-ns#">
   <cc:Work>
    <dc:type rdf:resource="http://purl.org/dc/dcmitype/StillImage"/>
    <dc:date>2023-12-11T01:39:55.718510</dc:date>
    <dc:format>image/svg+xml</dc:format>
    <dc:creator>
     <cc:Agent>
      <dc:title>Matplotlib v3.5.3, https://matplotlib.org/</dc:title>
     </cc:Agent>
    </dc:creator>
   </cc:Work>
  </rdf:RDF>
 </metadata>
 <defs>
  <style type="text/css">*{stroke-linejoin: round; stroke-linecap: butt}</style>
 </defs>
 <g id="figure_1">
  <g id="patch_1">
   <path d="M 0 288 
L 1080 288 
L 1080 0 
L 0 0 
z
" style="fill: #f0f0f0"/>
  </g>
  <g id="axes_1">
   <g id="patch_2">
    <path d="M 34.63 255.8 
L 1064.88 255.8 
L 1064.88 43.92 
L 34.63 43.92 
z
" style="fill: #f0f0f0"/>
   </g>
   <g id="matplotlib.axis_1">
    <g id="xtick_1">
     <g id="text_1">
      <!-- Age -->
      <g style="fill: #262626" transform="translate(282.406797 270.673594)scale(0.11 -0.11)">
       <defs>
        <path id="ArialMT-41" d="M -9 0 
L 1750 4581 
L 2403 4581 
L 4278 0 
L 3588 0 
L 3053 1388 
L 1138 1388 
L 634 0 
L -9 0 
z
M 1313 1881 
L 2866 1881 
L 2388 3150 
Q 2169 3728 2063 4100 
Q 1975 3659 1816 3225 
L 1313 1881 
z
" transform="scale(0.015625)"/>
        <path id="ArialMT-67" d="M 319 -275 
L 866 -356 
Q 900 -609 1056 -725 
Q 1266 -881 1628 -881 
Q 2019 -881 2231 -725 
Q 2444 -569 2519 -288 
Q 2563 -116 2559 434 
Q 2191 0 1641 0 
Q 956 0 581 494 
Q 206 988 206 1678 
Q 206 2153 378 2554 
Q 550 2956 876 3175 
Q 1203 3394 1644 3394 
Q 2231 3394 2613 2919 
L 2613 3319 
L 3131 3319 
L 3131 450 
Q 3131 -325 2973 -648 
Q 2816 -972 2473 -1159 
Q 2131 -1347 1631 -1347 
Q 1038 -1347 672 -1080 
Q 306 -813 319 -275 
z
M 784 1719 
Q 784 1066 1043 766 
Q 1303 466 1694 466 
Q 2081 466 2343 764 
Q 2606 1063 2606 1700 
Q 2606 2309 2336 2618 
Q 2066 2928 1684 2928 
Q 1309 2928 1046 2623 
Q 784 2319 784 1719 
z
" transform="scale(0.015625)"/>
        <path id="ArialMT-65" d="M 2694 1069 
L 3275 997 
Q 3138 488 2766 206 
Q 2394 -75 1816 -75 
Q 1088 -75 661 373 
Q 234 822 234 1631 
Q 234 2469 665 2931 
Q 1097 3394 1784 3394 
Q 2450 3394 2872 2941 
Q 3294 2488 3294 1666 
Q 3294 1616 3291 1516 
L 816 1516 
Q 847 969 1125 678 
Q 1403 388 1819 388 
Q 2128 388 2347 550 
Q 2566 713 2694 1069 
z
M 847 1978 
L 2700 1978 
Q 2663 2397 2488 2606 
Q 2219 2931 1791 2931 
Q 1403 2931 1139 2672 
Q 875 2413 847 1978 
z
" transform="scale(0.015625)"/>
       </defs>
       <use xlink:href="#ArialMT-41"/>
       <use xlink:href="#ArialMT-67" x="66.699219"/>
       <use xlink:href="#ArialMT-65" x="122.314453"/>
      </g>
     </g>
    </g>
    <g id="xtick_2">
     <g id="text_2">
      <!-- Fare -->
      <g style="fill: #262626" transform="translate(796.009844 270.673594)scale(0.11 -0.11)">
       <defs>
        <path id="ArialMT-46" d="M 525 0 
L 525 4581 
L 3616 4581 
L 3616 4041 
L 1131 4041 
L 1131 2622 
L 3281 2622 
L 3281 2081 
L 1131 2081 
L 1131 0 
L 525 0 
z
" transform="scale(0.015625)"/>
        <path id="ArialMT-61" d="M 2588 409 
Q 2275 144 1986 34 
Q 1697 -75 1366 -75 
Q 819 -75 525 192 
Q 231 459 231 875 
Q 231 1119 342 1320 
Q 453 1522 633 1644 
Q 813 1766 1038 1828 
Q 1203 1872 1538 1913 
Q 2219 1994 2541 2106 
Q 2544 2222 2544 2253 
Q 2544 2597 2384 2738 
Q 2169 2928 1744 2928 
Q 1347 2928 1158 2789 
Q 969 2650 878 2297 
L 328 2372 
Q 403 2725 575 2942 
Q 747 3159 1072 3276 
Q 1397 3394 1825 3394 
Q 2250 3394 2515 3294 
Q 2781 3194 2906 3042 
Q 3031 2891 3081 2659 
Q 3109 2516 3109 2141 
L 3109 1391 
Q 3109 606 3145 398 
Q 3181 191 3288 0 
L 2700 0 
Q 2613 175 2588 409 
z
M 2541 1666 
Q 2234 1541 1622 1453 
Q 1275 1403 1131 1340 
Q 988 1278 909 1158 
Q 831 1038 831 891 
Q 831 666 1001 516 
Q 1172 366 1500 366 
Q 1825 366 2078 508 
Q 2331 650 2450 897 
Q 2541 1088 2541 1459 
L 2541 1666 
z
" transform="scale(0.015625)"/>
        <path id="ArialMT-72" d="M 416 0 
L 416 3319 
L 922 3319 
L 922 2816 
Q 1116 3169 1280 3281 
Q 1444 3394 1641 3394 
Q 1925 3394 2219 3213 
L 2025 2691 
Q 1819 2813 1613 2813 
Q 1428 2813 1281 2702 
Q 1134 2591 1072 2394 
Q 978 2094 978 1738 
L 978 0 
L 416 0 
z
" transform="scale(0.015625)"/>
       </defs>
       <use xlink:href="#ArialMT-46"/>
       <use xlink:href="#ArialMT-61" x="61.083984"/>
       <use xlink:href="#ArialMT-72" x="116.699219"/>
       <use xlink:href="#ArialMT-65" x="150"/>
      </g>
     </g>
    </g>
   </g>
   <g id="matplotlib.axis_2">
    <g id="ytick_1">
     <g id="line2d_1">
      <path d="M 34.63 237.801486 
L 1064.88 237.801486 
" clip-path="url(#p8a366b8ef6)" style="fill: none; stroke: #cbcbcb"/>
     </g>
     <g id="text_3">
      <!-- −2 -->
      <g style="fill: #262626" transform="translate(15.088281 241.738283)scale(0.11 -0.11)">
       <defs>
        <path id="ArialMT-2212" d="M 3381 1997 
L 356 1997 
L 356 2522 
L 3381 2522 
L 3381 1997 
z
" transform="scale(0.015625)"/>
        <path id="ArialMT-32" d="M 3222 541 
L 3222 0 
L 194 0 
Q 188 203 259 391 
Q 375 700 629 1000 
Q 884 1300 1366 1694 
Q 2113 2306 2375 2664 
Q 2638 3022 2638 3341 
Q 2638 3675 2398 3904 
Q 2159 4134 1775 4134 
Q 1369 4134 1125 3890 
Q 881 3647 878 3216 
L 300 3275 
Q 359 3922 746 4261 
Q 1134 4600 1788 4600 
Q 2447 4600 2831 4234 
Q 3216 3869 3216 3328 
Q 3216 3053 3103 2787 
Q 2991 2522 2730 2228 
Q 2469 1934 1863 1422 
Q 1356 997 1212 845 
Q 1069 694 975 541 
L 3222 541 
z
" transform="scale(0.015625)"/>
       </defs>
       <use xlink:href="#ArialMT-2212"/>
       <use xlink:href="#ArialMT-32" x="58.398438"/>
      </g>
     </g>
    </g>
    <g id="ytick_2">
     <g id="line2d_2">
      <path d="M 34.63 207.53656 
L 1064.88 207.53656 
" clip-path="url(#p8a366b8ef6)" style="fill: none; stroke: #cbcbcb"/>
     </g>
     <g id="text_4">
      <!-- 0 -->
      <g style="fill: #262626" transform="translate(21.512969 211.473356)scale(0.11 -0.11)">
       <defs>
        <path id="ArialMT-30" d="M 266 2259 
Q 266 3072 433 3567 
Q 600 4063 929 4331 
Q 1259 4600 1759 4600 
Q 2128 4600 2406 4451 
Q 2684 4303 2865 4023 
Q 3047 3744 3150 3342 
Q 3253 2941 3253 2259 
Q 3253 1453 3087 958 
Q 2922 463 2592 192 
Q 2263 -78 1759 -78 
Q 1097 -78 719 397 
Q 266 969 266 2259 
z
M 844 2259 
Q 844 1131 1108 757 
Q 1372 384 1759 384 
Q 2147 384 2411 759 
Q 2675 1134 2675 2259 
Q 2675 3391 2411 3762 
Q 2147 4134 1753 4134 
Q 1366 4134 1134 3806 
Q 844 3388 844 2259 
z
" transform="scale(0.015625)"/>
       </defs>
       <use xlink:href="#ArialMT-30"/>
      </g>
     </g>
    </g>
    <g id="ytick_3">
     <g id="line2d_3">
      <path d="M 34.63 177.271633 
L 1064.88 177.271633 
" clip-path="url(#p8a366b8ef6)" style="fill: none; stroke: #cbcbcb"/>
     </g>
     <g id="text_5">
      <!-- 2 -->
      <g style="fill: #262626" transform="translate(21.512969 181.20843)scale(0.11 -0.11)">
       <use xlink:href="#ArialMT-32"/>
      </g>
     </g>
    </g>
    <g id="ytick_4">
     <g id="line2d_4">
      <path d="M 34.63 147.006706 
L 1064.88 147.006706 
" clip-path="url(#p8a366b8ef6)" style="fill: none; stroke: #cbcbcb"/>
     </g>
     <g id="text_6">
      <!-- 4 -->
      <g style="fill: #262626" transform="translate(21.512969 150.943503)scale(0.11 -0.11)">
       <defs>
        <path id="ArialMT-34" d="M 2069 0 
L 2069 1097 
L 81 1097 
L 81 1613 
L 2172 4581 
L 2631 4581 
L 2631 1613 
L 3250 1613 
L 3250 1097 
L 2631 1097 
L 2631 0 
L 2069 0 
z
M 2069 1613 
L 2069 3678 
L 634 1613 
L 2069 1613 
z
" transform="scale(0.015625)"/>
       </defs>
       <use xlink:href="#ArialMT-34"/>
      </g>
     </g>
    </g>
    <g id="ytick_5">
     <g id="line2d_5">
      <path d="M 34.63 116.741779 
L 1064.88 116.741779 
" clip-path="url(#p8a366b8ef6)" style="fill: none; stroke: #cbcbcb"/>
     </g>
     <g id="text_7">
      <!-- 6 -->
      <g style="fill: #262626" transform="translate(21.512969 120.678576)scale(0.11 -0.11)">
       <defs>
        <path id="ArialMT-36" d="M 3184 3459 
L 2625 3416 
Q 2550 3747 2413 3897 
Q 2184 4138 1850 4138 
Q 1581 4138 1378 3988 
Q 1113 3794 959 3422 
Q 806 3050 800 2363 
Q 1003 2672 1297 2822 
Q 1591 2972 1913 2972 
Q 2475 2972 2870 2558 
Q 3266 2144 3266 1488 
Q 3266 1056 3080 686 
Q 2894 316 2569 119 
Q 2244 -78 1831 -78 
Q 1128 -78 684 439 
Q 241 956 241 2144 
Q 241 3472 731 4075 
Q 1159 4600 1884 4600 
Q 2425 4600 2770 4297 
Q 3116 3994 3184 3459 
z
M 888 1484 
Q 888 1194 1011 928 
Q 1134 663 1356 523 
Q 1578 384 1822 384 
Q 2178 384 2434 671 
Q 2691 959 2691 1453 
Q 2691 1928 2437 2201 
Q 2184 2475 1800 2475 
Q 1419 2475 1153 2201 
Q 888 1928 888 1484 
z
" transform="scale(0.015625)"/>
       </defs>
       <use xlink:href="#ArialMT-36"/>
      </g>
     </g>
    </g>
    <g id="ytick_6">
     <g id="line2d_6">
      <path d="M 34.63 86.476853 
L 1064.88 86.476853 
" clip-path="url(#p8a366b8ef6)" style="fill: none; stroke: #cbcbcb"/>
     </g>
     <g id="text_8">
      <!-- 8 -->
      <g style="fill: #262626" transform="translate(21.512969 90.413649)scale(0.11 -0.11)">
       <defs>
        <path id="ArialMT-38" d="M 1131 2484 
Q 781 2613 612 2850 
Q 444 3088 444 3419 
Q 444 3919 803 4259 
Q 1163 4600 1759 4600 
Q 2359 4600 2725 4251 
Q 3091 3903 3091 3403 
Q 3091 3084 2923 2848 
Q 2756 2613 2416 2484 
Q 2838 2347 3058 2040 
Q 3278 1734 3278 1309 
Q 3278 722 2862 322 
Q 2447 -78 1769 -78 
Q 1091 -78 675 323 
Q 259 725 259 1325 
Q 259 1772 486 2073 
Q 713 2375 1131 2484 
z
M 1019 3438 
Q 1019 3113 1228 2906 
Q 1438 2700 1772 2700 
Q 2097 2700 2305 2904 
Q 2513 3109 2513 3406 
Q 2513 3716 2298 3927 
Q 2084 4138 1766 4138 
Q 1444 4138 1231 3931 
Q 1019 3725 1019 3438 
z
M 838 1322 
Q 838 1081 952 856 
Q 1066 631 1291 507 
Q 1516 384 1775 384 
Q 2178 384 2440 643 
Q 2703 903 2703 1303 
Q 2703 1709 2433 1975 
Q 2163 2241 1756 2241 
Q 1359 2241 1098 1978 
Q 838 1716 838 1322 
z
" transform="scale(0.015625)"/>
       </defs>
       <use xlink:href="#ArialMT-38"/>
      </g>
     </g>
    </g>
    <g id="ytick_7">
     <g id="line2d_7">
      <path d="M 34.63 56.211926 
L 1064.88 56.211926 
" clip-path="url(#p8a366b8ef6)" style="fill: none; stroke: #cbcbcb"/>
     </g>
     <g id="text_9">
      <!-- 10 -->
      <g style="fill: #262626" transform="translate(15.395938 60.148723)scale(0.11 -0.11)">
       <defs>
        <path id="ArialMT-31" d="M 2384 0 
L 1822 0 
L 1822 3584 
Q 1619 3391 1289 3197 
Q 959 3003 697 2906 
L 697 3450 
Q 1169 3672 1522 3987 
Q 1875 4303 2022 4600 
L 2384 4600 
L 2384 0 
z
" transform="scale(0.015625)"/>
       </defs>
       <use xlink:href="#ArialMT-31"/>
       <use xlink:href="#ArialMT-30" x="55.615234"/>
      </g>
     </g>
    </g>
   </g>
   <g id="PolyCollection_1">
    <defs>
     <path id="mf8ebb6d54f" d="M 294.50895 -41.830909 
L 289.87605 -41.830909 
L 288.235861 -42.832563 
L 285.79834 -43.834217 
L 282.408381 -44.835871 
L 278.004042 -45.837525 
L 272.671442 -46.839179 
L 266.676249 -47.840833 
L 260.452133 -48.842487 
L 254.538086 -49.844141 
L 249.474913 -50.845795 
L 245.688494 -51.847449 
L 243.394661 -52.849102 
L 242.553039 -53.850756 
L 242.877904 -54.85241 
L 243.892668 -55.854064 
L 245.002103 -56.855718 
L 245.558607 -57.857372 
L 244.913062 -58.859026 
L 242.457369 -59.86068 
L 237.673866 -60.862334 
L 230.201401 -61.863988 
L 219.911937 -62.865642 
L 206.975077 -63.867296 
L 191.88118 -64.86895 
L 175.402059 -65.870604 
L 158.488649 -66.872258 
L 142.12806 -67.873912 
L 127.197122 -68.875566 
L 114.349559 -69.87722 
L 103.960225 -70.878873 
L 96.129936 -71.880527 
L 90.737515 -72.882181 
L 87.5175 -73.883835 
L 86.1425 -74.885489 
L 86.294296 -75.887143 
L 87.713386 -76.888797 
L 90.221397 -77.890451 
L 93.716001 -78.892105 
L 98.144368 -79.893759 
L 103.467113 -80.895413 
L 109.62667 -81.897067 
L 116.530027 -82.898721 
L 124.047674 -83.900375 
L 132.023275 -84.902029 
L 140.286015 -85.903683 
L 148.660378 -86.905337 
L 156.972869 -87.906991 
L 165.058164 -88.908644 
L 172.766802 -89.910298 
L 179.974354 -90.911952 
L 186.590404 -91.913606 
L 192.565796 -92.91526 
L 197.897472 -93.916914 
L 202.630639 -94.918568 
L 206.857295 -95.920222 
L 210.70925 -96.921876 
L 214.34382 -97.92353 
L 217.92205 -98.925184 
L 221.582167 -99.926838 
L 225.413896 -100.928492 
L 229.440679 -101.930146 
L 233.615794 -102.9318 
L 237.834698 -103.933454 
L 241.960951 -104.935108 
L 245.858756 -105.936762 
L 249.423451 -106.938415 
L 252.602572 -107.940069 
L 255.403575 -108.941723 
L 257.888028 -109.943377 
L 260.154939 -110.945031 
L 262.317341 -111.946685 
L 264.476863 -112.948339 
L 266.701259 -113.949993 
L 269.009766 -114.951647 
L 271.370219 -115.953301 
L 273.709517 -116.954955 
L 275.935456 -117.956609 
L 277.963943 -118.958263 
L 279.743046 -119.959917 
L 281.265718 -120.961571 
L 282.566909 -121.963225 
L 283.70677 -122.964879 
L 284.747148 -123.966532 
L 285.730893 -124.968186 
L 286.671555 -125.96984 
L 287.555966 -126.971494 
L 288.356618 -127.973148 
L 289.047308 -128.974802 
L 289.615371 -129.976456 
L 290.066428 -130.97811 
L 290.421356 -131.979764 
L 290.708223 -132.981418 
L 290.953284 -133.983072 
L 291.174554 -134.984726 
L 291.379694 -135.98638 
L 291.567885 -136.988034 
L 291.733934 -137.989688 
L 291.872511 -138.991342 
L 291.980994 -139.992996 
L 292.060375 -140.99465 
L 292.324625 -140.99465 
L 292.324625 -140.99465 
L 292.404006 -139.992996 
L 292.512489 -138.991342 
L 292.651066 -137.989688 
L 292.817115 -136.988034 
L 293.005306 -135.98638 
L 293.210446 -134.984726 
L 293.431716 -133.983072 
L 293.676777 -132.981418 
L 293.963644 -131.979764 
L 294.318572 -130.97811 
L 294.769629 -129.976456 
L 295.337692 -128.974802 
L 296.028382 -127.973148 
L 296.829034 -126.971494 
L 297.713445 -125.96984 
L 298.654107 -124.968186 
L 299.637852 -123.966532 
L 300.67823 -122.964879 
L 301.818091 -121.963225 
L 303.119282 -120.961571 
L 304.641954 -119.959917 
L 306.421057 -118.958263 
L 308.449544 -117.956609 
L 310.675483 -116.954955 
L 313.014781 -115.953301 
L 315.375234 -114.951647 
L 317.683741 -113.949993 
L 319.908137 -112.948339 
L 322.067659 -111.946685 
L 324.230061 -110.945031 
L 326.496972 -109.943377 
L 328.981425 -108.941723 
L 331.782428 -107.940069 
L 334.961549 -106.938415 
L 338.526244 -105.936762 
L 342.424049 -104.935108 
L 346.550302 -103.933454 
L 350.769206 -102.9318 
L 354.944321 -101.930146 
L 358.971104 -100.928492 
L 362.802833 -99.926838 
L 366.46295 -98.925184 
L 370.04118 -97.92353 
L 373.67575 -96.921876 
L 377.527705 -95.920222 
L 381.754361 -94.918568 
L 386.487528 -93.916914 
L 391.819204 -92.91526 
L 397.794596 -91.913606 
L 404.410646 -90.911952 
L 411.618198 -89.910298 
L 419.326836 -88.908644 
L 427.412131 -87.906991 
L 435.724622 -86.905337 
L 444.098985 -85.903683 
L 452.361725 -84.902029 
L 460.337326 -83.900375 
L 467.854973 -82.898721 
L 474.75833 -81.897067 
L 480.917887 -80.895413 
L 486.240632 -79.893759 
L 490.668999 -78.892105 
L 494.163603 -77.890451 
L 496.671614 -76.888797 
L 498.090704 -75.887143 
L 498.2425 -74.885489 
L 496.8675 -73.883835 
L 493.647485 -72.882181 
L 488.255064 -71.880527 
L 480.424775 -70.878873 
L 470.035441 -69.87722 
L 457.187878 -68.875566 
L 442.25694 -67.873912 
L 425.896351 -66.872258 
L 408.982941 -65.870604 
L 392.50382 -64.86895 
L 377.409923 -63.867296 
L 364.473063 -62.865642 
L 354.183599 -61.863988 
L 346.711134 -60.862334 
L 341.927631 -59.86068 
L 339.471938 -58.859026 
L 338.826393 -57.857372 
L 339.382897 -56.855718 
L 340.492332 -55.854064 
L 341.507096 -54.85241 
L 341.831961 -53.850756 
L 340.990339 -52.849102 
L 338.696506 -51.847449 
L 334.910087 -50.845795 
L 329.846914 -49.844141 
L 323.932867 -48.842487 
L 317.708751 -47.840833 
L 311.713558 -46.839179 
L 306.380958 -45.837525 
L 301.976619 -44.835871 
L 298.58666 -43.834217 
L 296.149139 -42.832563 
L 294.50895 -41.830909 
z
" style="stroke: #484848; stroke-width: 3"/>
    </defs>
    <g clip-path="url(#p8a366b8ef6)">
     <use xlink:href="#mf8ebb6d54f" x="0" y="288" style="fill: #cb3335; stroke: #484848; stroke-width: 3"/>
    </g>
   </g>
   <g id="PolyCollection_2">
    <defs>
     <path id="mbb12c7207f" d="M 812.433707 -62.877009 
L 802.201293 -62.877009 
L 792.6068 -64.610061 
L 772.061438 -66.343112 
L 736.796453 -68.076163 
L 689.227944 -69.809215 
L 640.836744 -71.542266 
L 607.854406 -73.275317 
L 601.2675 -75.008368 
L 620.066045 -76.74142 
L 653.849389 -78.474471 
L 690.732508 -80.207522 
L 722.761019 -81.940574 
L 746.620093 -83.673625 
L 762.280275 -85.406676 
L 771.531309 -87.139728 
L 776.636561 -88.872779 
L 779.43862 -90.60583 
L 781.282091 -92.338882 
L 783.267947 -94.071933 
L 786.133259 -95.804984 
L 789.874667 -97.538036 
L 793.762468 -99.271087 
L 796.921549 -101.004138 
L 798.962749 -102.73719 
L 800.108203 -104.470241 
L 800.811878 -106.203292 
L 801.347972 -107.936344 
L 801.739693 -109.669395 
L 801.950844 -111.402446 
L 802.046463 -113.135498 
L 802.194787 -114.868549 
L 802.574126 -116.6016 
L 803.266537 -118.334652 
L 804.199151 -120.067703 
L 805.181967 -121.800754 
L 806.016081 -123.533806 
L 806.578341 -125.266857 
L 806.828398 -126.999908 
L 806.771641 -128.73296 
L 806.440279 -130.466011 
L 805.911067 -132.199062 
L 805.320291 -133.932114 
L 804.833317 -135.665165 
L 804.57992 -137.398216 
L 804.59899 -139.131268 
L 804.816352 -140.864319 
L 805.067313 -142.59737 
L 805.177216 -144.330422 
L 805.073783 -146.063473 
L 804.853251 -147.796524 
L 804.733312 -149.529576 
L 804.90445 -151.262627 
L 805.386808 -152.995678 
L 806.019725 -154.72873 
L 806.592231 -156.461781 
L 806.982454 -158.194832 
L 807.189981 -159.927884 
L 807.27759 -161.660935 
L 807.307241 -163.393986 
L 807.315335 -165.127038 
L 807.317125 -166.860089 
L 807.317447 -168.59314 
L 807.317494 -170.326192 
L 807.317499 -172.059243 
L 807.3175 -173.792294 
L 807.3175 -175.525346 
L 807.3175 -177.258397 
L 807.3175 -178.991448 
L 807.3175 -180.7245 
L 807.3175 -182.457551 
L 807.3175 -184.190602 
L 807.3175 -185.923654 
L 807.3175 -187.656705 
L 807.3175 -189.389756 
L 807.3175 -191.122808 
L 807.3175 -192.855859 
L 807.3175 -194.58891 
L 807.3175 -196.321962 
L 807.3175 -198.055013 
L 807.3175 -199.788064 
L 807.3175 -201.521116 
L 807.3175 -203.254167 
L 807.3175 -204.987218 
L 807.317498 -206.72027 
L 807.317482 -208.453321 
L 807.317366 -210.186372 
L 807.316697 -211.919424 
L 807.313562 -213.652475 
L 807.301662 -215.385526 
L 807.265274 -217.118578 
L 807.176291 -218.851629 
L 807.004436 -220.58468 
L 806.748388 -222.317732 
L 806.469188 -224.050783 
L 806.28067 -225.783834 
L 806.27841 -227.516886 
L 806.463629 -229.249937 
L 806.742159 -230.982988 
L 806.999628 -232.71604 
L 807.173497 -234.449091 
L 807.461503 -234.449091 
L 807.461503 -234.449091 
L 807.635372 -232.71604 
L 807.892841 -230.982988 
L 808.171371 -229.249937 
L 808.35659 -227.516886 
L 808.35433 -225.783834 
L 808.165812 -224.050783 
L 807.886612 -222.317732 
L 807.630564 -220.58468 
L 807.458709 -218.851629 
L 807.369726 -217.118578 
L 807.333338 -215.385526 
L 807.321438 -213.652475 
L 807.318303 -211.919424 
L 807.317634 -210.186372 
L 807.317518 -208.453321 
L 807.317502 -206.72027 
L 807.3175 -204.987218 
L 807.3175 -203.254167 
L 807.3175 -201.521116 
L 807.3175 -199.788064 
L 807.3175 -198.055013 
L 807.3175 -196.321962 
L 807.3175 -194.58891 
L 807.3175 -192.855859 
L 807.3175 -191.122808 
L 807.3175 -189.389756 
L 807.3175 -187.656705 
L 807.3175 -185.923654 
L 807.3175 -184.190602 
L 807.3175 -182.457551 
L 807.3175 -180.7245 
L 807.3175 -178.991448 
L 807.3175 -177.258397 
L 807.3175 -175.525346 
L 807.3175 -173.792294 
L 807.317501 -172.059243 
L 807.317506 -170.326192 
L 807.317553 -168.59314 
L 807.317875 -166.860089 
L 807.319665 -165.127038 
L 807.327759 -163.393986 
L 807.35741 -161.660935 
L 807.445019 -159.927884 
L 807.652546 -158.194832 
L 808.042769 -156.461781 
L 808.615275 -154.72873 
L 809.248192 -152.995678 
L 809.73055 -151.262627 
L 809.901688 -149.529576 
L 809.781749 -147.796524 
L 809.561217 -146.063473 
L 809.457784 -144.330422 
L 809.567687 -142.59737 
L 809.818648 -140.864319 
L 810.03601 -139.131268 
L 810.05508 -137.398216 
L 809.801683 -135.665165 
L 809.314709 -133.932114 
L 808.723933 -132.199062 
L 808.194721 -130.466011 
L 807.863359 -128.73296 
L 807.806602 -126.999908 
L 808.056659 -125.266857 
L 808.618919 -123.533806 
L 809.453033 -121.800754 
L 810.435849 -120.067703 
L 811.368463 -118.334652 
L 812.060874 -116.6016 
L 812.440213 -114.868549 
L 812.588537 -113.135498 
L 812.684156 -111.402446 
L 812.895307 -109.669395 
L 813.287028 -107.936344 
L 813.823122 -106.203292 
L 814.526797 -104.470241 
L 815.672251 -102.73719 
L 817.713451 -101.004138 
L 820.872532 -99.271087 
L 824.760333 -97.538036 
L 828.501741 -95.804984 
L 831.367053 -94.071933 
L 833.352909 -92.338882 
L 835.19638 -90.60583 
L 837.998439 -88.872779 
L 843.103691 -87.139728 
L 852.354725 -85.406676 
L 868.014907 -83.673625 
L 891.873981 -81.940574 
L 923.902492 -80.207522 
L 960.785611 -78.474471 
L 994.568955 -76.74142 
L 1013.3675 -75.008368 
L 1006.780594 -73.275317 
L 973.798256 -71.542266 
L 925.407056 -69.809215 
L 877.838547 -68.076163 
L 842.573562 -66.343112 
L 822.0282 -64.610061 
L 812.433707 -62.877009 
z
" style="stroke: #484848; stroke-width: 3"/>
    </defs>
    <g clip-path="url(#p8a366b8ef6)">
     <use xlink:href="#mbb12c7207f" x="0" y="288" style="fill: #477ca8; stroke: #484848; stroke-width: 3"/>
    </g>
   </g>
   <g id="line2d_8">
    <path d="M 292.1925 238.037042 
L 292.1925 171.804832 
" clip-path="url(#p8a366b8ef6)" style="fill: none; stroke: #484848; stroke-width: 3"/>
   </g>
   <g id="line2d_9">
    <path d="M 292.1925 217.510057 
L 292.1925 198.88941 
" clip-path="url(#p8a366b8ef6)" style="fill: none; stroke: #484848; stroke-width: 9"/>
   </g>
   <g id="line2d_10">
    <path d="M 807.3175 217.343269 
L 807.3175 197.549703 
" clip-path="url(#p8a366b8ef6)" style="fill: none; stroke: #484848; stroke-width: 3"/>
   </g>
   <g id="line2d_11">
    <path d="M 807.3175 214.934422 
L 807.3175 207.903261 
" clip-path="url(#p8a366b8ef6)" style="fill: none; stroke: #484848; stroke-width: 9"/>
   </g>
   <g id="patch_3">
    <path d="M 34.63 255.8 
L 34.63 43.92 
" style="fill: none; stroke: #f0f0f0; stroke-width: 3; stroke-linejoin: miter; stroke-linecap: square"/>
   </g>
   <g id="patch_4">
    <path d="M 1064.88 255.8 
L 1064.88 43.92 
" style="fill: none; stroke: #f0f0f0; stroke-width: 3; stroke-linejoin: miter; stroke-linecap: square"/>
   </g>
   <g id="patch_5">
    <path d="M 34.63 255.8 
L 1064.88 255.8 
" style="fill: none; stroke: #f0f0f0; stroke-width: 3; stroke-linejoin: miter; stroke-linecap: square"/>
   </g>
   <g id="patch_6">
    <path d="M 34.63 43.92 
L 1064.88 43.92 
" style="fill: none; stroke: #f0f0f0; stroke-width: 3; stroke-linejoin: miter; stroke-linecap: square"/>
   </g>
   <g id="PathCollection_1">
    <defs>
     <path id="mab2fe031b9" d="M 0 3 
C 0.795609 3 1.55874 2.683901 2.12132 2.12132 
C 2.683901 1.55874 3 0.795609 3 0 
C 3 -0.795609 2.683901 -1.55874 2.12132 -2.12132 
C 1.55874 -2.683901 0.795609 -3 0 -3 
C -0.795609 -3 -1.55874 -2.683901 -2.12132 -2.12132 
C -2.683901 -1.55874 -3 -0.795609 -3 0 
C -3 0.795609 -2.683901 1.55874 -2.12132 2.12132 
C -1.55874 2.683901 -0.795609 3 0 3 
z
" style="stroke: #484848; stroke-width: 0.5"/>
    </defs>
    <g clip-path="url(#p8a366b8ef6)">
     <use xlink:href="#mab2fe031b9" x="292.1925" y="209.306555" style="fill: #ffffff; stroke: #484848; stroke-width: 0.5"/>
    </g>
   </g>
   <g id="PathCollection_2">
    <g clip-path="url(#p8a366b8ef6)">
     <use xlink:href="#mab2fe031b9" x="807.3175" y="212.941728" style="fill: #ffffff; stroke: #484848; stroke-width: 0.5"/>
    </g>
   </g>
  </g>
  <g id="text_10">
   <!-- Violin Plot of all Continuous Variables -->
   <g style="fill: #262626" transform="translate(416.035547 16.496719)scale(0.15 -0.15)">
    <defs>
     <path id="ArialMT-56" d="M 1803 0 
L 28 4581 
L 684 4581 
L 1875 1253 
Q 2019 853 2116 503 
Q 2222 878 2363 1253 
L 3600 4581 
L 4219 4581 
L 2425 0 
L 1803 0 
z
" transform="scale(0.015625)"/>
     <path id="ArialMT-69" d="M 425 3934 
L 425 4581 
L 988 4581 
L 988 3934 
L 425 3934 
z
M 425 0 
L 425 3319 
L 988 3319 
L 988 0 
L 425 0 
z
" transform="scale(0.015625)"/>
     <path id="ArialMT-6f" d="M 213 1659 
Q 213 2581 725 3025 
Q 1153 3394 1769 3394 
Q 2453 3394 2887 2945 
Q 3322 2497 3322 1706 
Q 3322 1066 3130 698 
Q 2938 331 2570 128 
Q 2203 -75 1769 -75 
Q 1072 -75 642 372 
Q 213 819 213 1659 
z
M 791 1659 
Q 791 1022 1069 705 
Q 1347 388 1769 388 
Q 2188 388 2466 706 
Q 2744 1025 2744 1678 
Q 2744 2294 2464 2611 
Q 2184 2928 1769 2928 
Q 1347 2928 1069 2612 
Q 791 2297 791 1659 
z
" transform="scale(0.015625)"/>
     <path id="ArialMT-6c" d="M 409 0 
L 409 4581 
L 972 4581 
L 972 0 
L 409 0 
z
" transform="scale(0.015625)"/>
     <path id="ArialMT-6e" d="M 422 0 
L 422 3319 
L 928 3319 
L 928 2847 
Q 1294 3394 1984 3394 
Q 2284 3394 2536 3286 
Q 2788 3178 2913 3003 
Q 3038 2828 3088 2588 
Q 3119 2431 3119 2041 
L 3119 0 
L 2556 0 
L 2556 2019 
Q 2556 2363 2490 2533 
Q 2425 2703 2258 2804 
Q 2091 2906 1866 2906 
Q 1506 2906 1245 2678 
Q 984 2450 984 1813 
L 984 0 
L 422 0 
z
" transform="scale(0.015625)"/>
     <path id="ArialMT-20" transform="scale(0.015625)"/>
     <path id="ArialMT-50" d="M 494 0 
L 494 4581 
L 2222 4581 
Q 2678 4581 2919 4538 
Q 3256 4481 3484 4323 
Q 3713 4166 3852 3881 
Q 3991 3597 3991 3256 
Q 3991 2672 3619 2267 
Q 3247 1863 2275 1863 
L 1100 1863 
L 1100 0 
L 494 0 
z
M 1100 2403 
L 2284 2403 
Q 2872 2403 3119 2622 
Q 3366 2841 3366 3238 
Q 3366 3525 3220 3729 
Q 3075 3934 2838 4000 
Q 2684 4041 2272 4041 
L 1100 4041 
L 1100 2403 
z
" transform="scale(0.015625)"/>
     <path id="ArialMT-74" d="M 1650 503 
L 1731 6 
Q 1494 -44 1306 -44 
Q 1000 -44 831 53 
Q 663 150 594 308 
Q 525 466 525 972 
L 525 2881 
L 113 2881 
L 113 3319 
L 525 3319 
L 525 4141 
L 1084 4478 
L 1084 3319 
L 1650 3319 
L 1650 2881 
L 1084 2881 
L 1084 941 
Q 1084 700 1114 631 
Q 1144 563 1211 522 
Q 1278 481 1403 481 
Q 1497 481 1650 503 
z
" transform="scale(0.015625)"/>
     <path id="ArialMT-66" d="M 556 0 
L 556 2881 
L 59 2881 
L 59 3319 
L 556 3319 
L 556 3672 
Q 556 4006 616 4169 
Q 697 4388 901 4523 
Q 1106 4659 1475 4659 
Q 1713 4659 2000 4603 
L 1916 4113 
Q 1741 4144 1584 4144 
Q 1328 4144 1222 4034 
Q 1116 3925 1116 3625 
L 1116 3319 
L 1763 3319 
L 1763 2881 
L 1116 2881 
L 1116 0 
L 556 0 
z
" transform="scale(0.015625)"/>
     <path id="ArialMT-43" d="M 3763 1606 
L 4369 1453 
Q 4178 706 3683 314 
Q 3188 -78 2472 -78 
Q 1731 -78 1267 223 
Q 803 525 561 1097 
Q 319 1669 319 2325 
Q 319 3041 592 3573 
Q 866 4106 1370 4382 
Q 1875 4659 2481 4659 
Q 3169 4659 3637 4309 
Q 4106 3959 4291 3325 
L 3694 3184 
Q 3534 3684 3231 3912 
Q 2928 4141 2469 4141 
Q 1941 4141 1586 3887 
Q 1231 3634 1087 3207 
Q 944 2781 944 2328 
Q 944 1744 1114 1308 
Q 1284 872 1643 656 
Q 2003 441 2422 441 
Q 2931 441 3284 734 
Q 3638 1028 3763 1606 
z
" transform="scale(0.015625)"/>
     <path id="ArialMT-75" d="M 2597 0 
L 2597 488 
Q 2209 -75 1544 -75 
Q 1250 -75 995 37 
Q 741 150 617 320 
Q 494 491 444 738 
Q 409 903 409 1263 
L 409 3319 
L 972 3319 
L 972 1478 
Q 972 1038 1006 884 
Q 1059 663 1231 536 
Q 1403 409 1656 409 
Q 1909 409 2131 539 
Q 2353 669 2445 892 
Q 2538 1116 2538 1541 
L 2538 3319 
L 3100 3319 
L 3100 0 
L 2597 0 
z
" transform="scale(0.015625)"/>
     <path id="ArialMT-73" d="M 197 991 
L 753 1078 
Q 800 744 1014 566 
Q 1228 388 1613 388 
Q 2000 388 2187 545 
Q 2375 703 2375 916 
Q 2375 1106 2209 1216 
Q 2094 1291 1634 1406 
Q 1016 1563 777 1677 
Q 538 1791 414 1992 
Q 291 2194 291 2438 
Q 291 2659 392 2848 
Q 494 3038 669 3163 
Q 800 3259 1026 3326 
Q 1253 3394 1513 3394 
Q 1903 3394 2198 3281 
Q 2494 3169 2634 2976 
Q 2775 2784 2828 2463 
L 2278 2388 
Q 2241 2644 2061 2787 
Q 1881 2931 1553 2931 
Q 1166 2931 1000 2803 
Q 834 2675 834 2503 
Q 834 2394 903 2306 
Q 972 2216 1119 2156 
Q 1203 2125 1616 2013 
Q 2213 1853 2448 1751 
Q 2684 1650 2818 1456 
Q 2953 1263 2953 975 
Q 2953 694 2789 445 
Q 2625 197 2315 61 
Q 2006 -75 1616 -75 
Q 969 -75 630 194 
Q 291 463 197 991 
z
" transform="scale(0.015625)"/>
     <path id="ArialMT-62" d="M 941 0 
L 419 0 
L 419 4581 
L 981 4581 
L 981 2947 
Q 1338 3394 1891 3394 
Q 2197 3394 2470 3270 
Q 2744 3147 2920 2923 
Q 3097 2700 3197 2384 
Q 3297 2069 3297 1709 
Q 3297 856 2875 390 
Q 2453 -75 1863 -75 
Q 1275 -75 941 416 
L 941 0 
z
M 934 1684 
Q 934 1088 1097 822 
Q 1363 388 1816 388 
Q 2184 388 2453 708 
Q 2722 1028 2722 1663 
Q 2722 2313 2464 2622 
Q 2206 2931 1841 2931 
Q 1472 2931 1203 2611 
Q 934 2291 934 1684 
z
" transform="scale(0.015625)"/>
    </defs>
    <use xlink:href="#ArialMT-56"/>
    <use xlink:href="#ArialMT-69" x="64.949219"/>
    <use xlink:href="#ArialMT-6f" x="87.166016"/>
    <use xlink:href="#ArialMT-6c" x="142.78125"/>
    <use xlink:href="#ArialMT-69" x="164.998047"/>
    <use xlink:href="#ArialMT-6e" x="187.214844"/>
    <use xlink:href="#ArialMT-20" x="242.830078"/>
    <use xlink:href="#ArialMT-50" x="270.613281"/>
    <use xlink:href="#ArialMT-6c" x="337.3125"/>
    <use xlink:href="#ArialMT-6f" x="359.529297"/>
    <use xlink:href="#ArialMT-74" x="415.144531"/>
    <use xlink:href="#ArialMT-20" x="442.927734"/>
    <use xlink:href="#ArialMT-6f" x="470.710938"/>
    <use xlink:href="#ArialMT-66" x="526.326172"/>
    <use xlink:href="#ArialMT-20" x="554.109375"/>
    <use xlink:href="#ArialMT-61" x="581.892578"/>
    <use xlink:href="#ArialMT-6c" x="637.507812"/>
    <use xlink:href="#ArialMT-6c" x="659.724609"/>
    <use xlink:href="#ArialMT-20" x="681.941406"/>
    <use xlink:href="#ArialMT-43" x="709.724609"/>
    <use xlink:href="#ArialMT-6f" x="781.941406"/>
    <use xlink:href="#ArialMT-6e" x="837.556641"/>
    <use xlink:href="#ArialMT-74" x="893.171875"/>
    <use xlink:href="#ArialMT-69" x="920.955078"/>
    <use xlink:href="#ArialMT-6e" x="943.171875"/>
    <use xlink:href="#ArialMT-75" x="998.787109"/>
    <use xlink:href="#ArialMT-6f" x="1054.402344"/>
    <use xlink:href="#ArialMT-75" x="1110.017578"/>
    <use xlink:href="#ArialMT-73" x="1165.632812"/>
    <use xlink:href="#ArialMT-20" x="1215.632812"/>
    <use xlink:href="#ArialMT-56" x="1243.416016"/>
    <use xlink:href="#ArialMT-61" x="1302.740234"/>
    <use xlink:href="#ArialMT-72" x="1358.355469"/>
    <use xlink:href="#ArialMT-69" x="1391.65625"/>
    <use xlink:href="#ArialMT-61" x="1413.873047"/>
    <use xlink:href="#ArialMT-62" x="1469.488281"/>
    <use xlink:href="#ArialMT-6c" x="1525.103516"/>
    <use xlink:href="#ArialMT-65" x="1547.320312"/>
    <use xlink:href="#ArialMT-73" x="1602.935547"/>
   </g>
  </g>
 </g>
 <defs>
  <clipPath id="p8a366b8ef6">
   <rect x="34.63" y="43.92" width="1030.25" height="211.88"/>
  </clipPath>
 </defs>
</svg>
